<?xml version="1.0" encoding="UTF-8"?>
<!DOCTYPE svg PUBLIC "-//W3C//DTD SVG 1.1//EN" "http://www.w3.org/Graphics/SVG/1.1/DTD/svg11.dtd">
<!-- Creator: CorelDRAW X8 -->
<svg xmlns="http://www.w3.org/2000/svg" xml:space="preserve" width="243.108mm" height="167.291mm" version="1.1" style="shape-rendering:geometricPrecision; text-rendering:geometricPrecision; image-rendering:optimizeQuality; fill-rule:evenodd; clip-rule:evenodd"
viewBox="0 0 24311 16729"
 xmlns:xlink="http://www.w3.org/1999/xlink">
 <defs>
  <style type="text/css">
   <![CDATA[
    .fil0 {fill:#3493C2}
    .fil1 {fill:#301111;fill-rule:nonzero}
    .fil4 {fill:#492626;fill-rule:nonzero}
    .fil5 {fill:#664646;fill-rule:nonzero}
    .fil3 {fill:#739931;fill-rule:nonzero}
    .fil2 {fill:#7EA836;fill-rule:nonzero}
    .fil6 {fill:#99CC42;fill-rule:nonzero}
    .fil7 {fill:#AADB55;fill-rule:nonzero}
   ]]>
  </style>
 </defs>
 <g id="Capa_x0020_1">
  <metadata id="CorelCorpID_0Corel-Layer"/>
  <g id="_2346939438112">
   <path class="fil0" d="M10483 14679l0 699 0 -699 2573 0 3327 0 6 0 3 0 14 0 0 0c378,2 738,77 1068,212l1064 412c111,26 207,39 289,39 207,0 369,-32 486,-94 119,-61 225,-171 320,-324 94,-156 205,-383 326,-682l167 -410 -2215 -5673c-138,-328 -205,-566 -205,-712 0,-156 40,-302 119,-437 79,-133 187,-240 326,-321 138,-80 282,-121 430,-121 262,0 457,85 588,252 133,167 248,407 349,721l1524 4506 1443 -4190c115,-341 218,-607 311,-799 92,-192 189,-323 292,-389 104,-66 250,-101 439,-101 136,0 266,37 392,110 124,76 221,174 291,300 67,123 101,256 101,396 -18,84 -45,206 -86,361 -40,156 -87,316 -144,476l-2348 6250c-202,552 -401,982 -592,1296 -193,313 -450,553 -770,720 -317,167 -747,252 -1288,252 -443,0 -793,-40 -1050,-123l0 1 -7 -3c-46,-15 -89,-31 -129,-49l-14 -6 -612 -237 0 0 -297 -115c-209,-67 -428,-108 -655,-120l-5836 0 0 0c-48,3 -94,3 -138,1 -287,-12 -489,-161 -601,-447 -77,-195 -76,-369 -2,-520 123,-250 465,-402 733,-431 3,0 5,-1 8,-1zm2292 -7824l0 5913c0,409 -85,718 -256,928 -171,210 -387,314 -651,314 -263,0 -477,-107 -641,-322 -165,-215 -248,-521 -248,-920l0 -5851c0,-407 83,-711 248,-916 164,-204 378,-307 641,-307 264,0 480,103 651,307 171,205 256,491 256,854zm1865 6043l0 -7936c0,-367 81,-643 240,-831 160,-188 376,-282 649,-282 270,0 491,94 657,280 167,185 250,462 250,833l0 7936c0,371 -86,648 -254,833 -169,186 -388,279 -653,279 -264,0 -478,-96 -642,-288 -164,-192 -247,-467 -247,-824zm-5809 -3826l-3298 3457 3528 0c286,0 502,63 646,188 146,126 218,289 218,485 0,190 -72,344 -213,464 -145,121 -361,180 -651,180l-4881 0c-342,0 -599,-70 -767,-211 -169,-140 -255,-332 -255,-574 0,-144 59,-290 178,-437 119,-146 365,-414 738,-807 397,-411 757,-785 1079,-1120 324,-334 623,-646 900,-937 277,-289 507,-536 689,-739 182,-203 329,-376 439,-519l-2677 0c-369,0 -648,-32 -837,-93 -189,-61 -284,-224 -284,-488 0,-192 70,-348 214,-462 142,-116 347,-173 610,-173l4136 0c382,0 675,53 880,158 205,104 306,294 306,564 0,91 -20,186 -58,281 -41,97 -84,177 -133,238 -47,61 -115,137 -198,226 -84,89 -187,194 -309,319zm-6753 -847l0 4780c0,331 -86,582 -257,751 -171,170 -387,254 -651,254 -263,0 -477,-86 -641,-260 -165,-174 -248,-422 -248,-745l0 -4730c0,-329 83,-575 248,-741 164,-165 378,-248 641,-248 264,0 480,83 651,248 171,166 257,397 257,691z"/>
   <polygon class="fil1" points="1111,2527 1304,2527 1304,93 1111,93 "/>
   <polygon class="fil1" points="11746,1836 11940,1836 11940,0 11746,0 "/>
   <path class="fil1" d="M6518 1851c-2989,0 -5422,-830 -5422,-1851l432 0c0,976 2238,1770 4990,1770 2752,0 4991,-794 4991,-1770l431 0c0,1021 -2432,1851 -5422,1851z"/>
   <path class="fil2" d="M1745 4191l0 -994 -1029 0 0 991c-422,194 -716,620 -716,1115 0,678 550,1228 1228,1228 678,0 1228,-550 1228,-1228 0,-493 -291,-917 -711,-1112z"/>
   <path class="fil3" d="M1745 4191l0 -994 -193 0 0 994c419,195 710,619 710,1112 0,646 -498,1174 -1131,1223 32,3 64,5 97,5 678,0 1228,-550 1228,-1228 0,-493 -291,-917 -711,-1112z"/>
   <path class="fil4" d="M1755 2839l0 886c0,27 -91,51 -231,65 -85,8 -187,13 -296,13 -128,0 -245,-7 -337,-18 -116,-14 -191,-36 -191,-60l0 -886c0,-187 153,-339 340,-339l376 0c187,0 339,152 339,339z"/>
   <path class="fil5" d="M1532 3585c0,71 -3,139 -8,205 -85,8 -187,13 -296,13 -128,0 -245,-7 -337,-18 -5,-64 -8,-131 -8,-200 0,-498 145,-903 324,-903 180,0 325,405 325,903z"/>
   <path class="fil6" d="M1925 5403c0,502 -427,909 -954,909 -527,0 -954,-407 -954,-909 0,-502 427,-909 954,-909 527,0 954,407 954,909z"/>
   <path class="fil7" d="M1295 5728c0,293 -237,530 -530,530 -293,0 -531,-237 -531,-530 0,-293 238,-531 531,-531 293,0 530,238 530,531z"/>
   <path class="fil2" d="M12385 2510l0 -994 -1029 0 0 991c-423,194 -716,620 -716,1115 0,678 549,1228 1228,1228 678,0 1228,-550 1228,-1228 0,-493 -292,-917 -711,-1112z"/>
   <path class="fil3" d="M12385 2510l0 -994 -194 0 0 994c419,195 711,619 711,1112 0,646 -499,1174 -1131,1223 32,3 64,5 97,5 678,0 1228,-550 1228,-1228 0,-493 -292,-917 -711,-1112z"/>
   <path class="fil4" d="M12395 1158l0 886c0,27 -91,51 -232,65 -84,8 -186,13 -296,13 -128,0 -245,-7 -336,-18 -116,-14 -191,-36 -191,-60l0 -886c0,-187 152,-339 339,-339l376 0c188,0 340,152 340,339z"/>
   <path class="fil5" d="M12172 1904c0,71 -3,139 -9,205 -84,8 -186,13 -296,13 -128,0 -245,-7 -336,-18 -6,-64 -9,-131 -9,-200 0,-498 146,-903 325,-903 179,0 325,405 325,903z"/>
   <path class="fil6" d="M12565 3722c0,502 -428,909 -955,909 -527,0 -954,-407 -954,-909 0,-502 427,-909 954,-909 527,0 955,407 955,909z"/>
   <path class="fil7" d="M11935 4047c0,293 -238,530 -531,530 -293,0 -530,-237 -530,-530 0,-293 237,-531 530,-531 293,0 531,238 531,531z"/>
  </g>
 </g>
</svg>
